<svg xmlns="http://www.w3.org/2000/svg" viewBox="53.506 125.46100000000001 467.9876074374007 324.078125"> <svg xmlns="http://www.w3.org/2000/svg" xmlns:xlink="http://www.w3.org/1999/xlink" version="1.1" id="outline_text" x="123.506" y="195.461" viewBox="187.7227783203125 173.16043090820312 240.36135864257812 134.89920043945312" xml:space="preserve" height="184.078125" width="327.98760743740064" preserveAspectRatio="xMinYMin" enable-background="new 0 0 612 458" style="overflow: visible;"><path class="st0" d="M423.47,216.82c-3.23-8.32-8.13-15.99-14.33-22.45c-6.19-6.47-13.7-11.74-21.99-15.38   c-8.29-3.65-17.37-5.63-26.42-5.81c-9.05-0.19-18.27,1.42-26.83,4.78c-1.96,0.77-3.89,1.64-5.77,2.58   c0.47-1.99,0.97-5.01-0.45-4.77c-1.42,0.25-5.52,6.05-8.02,9.78c-0.14,0.09-0.27,0.18-0.41,0.28c0.34-1.82,0.47-3.82-0.69-3.62   c-1.59,0.27-6.48,7.44-8.8,10.96l-12.51-14.36l-2.24,8.86c-1.23-0.98-2.47-1.93-3.77-2.83c-1.72-1.19-3.48-2.3-5.38-3.35   c-0.96-0.53-1.92-1.04-3.07-1.58c-0.31-0.14-0.56-0.26-1.04-0.47c-0.29-0.12,0.34,0.14,0.19,0.08l-0.07-0.03l-0.13-0.06l-0.26-0.13   l-0.53-0.25l-0.32-0.15l-0.36-0.16c-7.77-3.47-16.31-5.35-24.83-5.56c-8.52-0.21-17.2,1.27-25.26,4.4   c-8.07,3.12-15.52,7.86-21.8,13.85c-6.29,5.99-11.42,13.26-14.96,21.3c-3.55,8.03-5.5,16.84-5.68,25.63   c-0.2,8.78,1.34,17.73,4.59,26.04c3.23,8.32,8.13,15.99,14.33,22.45c6.19,6.47,13.7,11.74,21.99,15.38   c8.29,3.65,17.37,5.63,26.42,5.81c9.05,0.19,18.27-1.42,26.83-4.78c1.96-0.77,3.89-1.64,5.77-2.58c-0.47,1.99-0.97,5.01,0.45,4.77   c1.42-0.25,5.52-6.05,8.02-9.78c0.14-0.09,0.27-0.18,0.41-0.28c-0.34,1.82-0.47,3.82,0.69,3.62c1.59-0.28,6.48-7.44,8.8-10.96   l12.51,14.36l2.24-8.86c1.23,0.98,2.47,1.93,3.77,2.83c1.72,1.19,3.48,2.3,5.38,3.35c0.96,0.53,1.92,1.04,3.07,1.58   c0.31,0.14,0.56,0.26,1.04,0.47c0.29,0.12-0.34-0.14-0.19-0.08l0.07,0.03l0.13,0.06l0.26,0.13l0.53,0.25l0.32,0.15l0.37,0.16   c7.77,3.47,16.31,5.35,24.83,5.56c8.52,0.21,17.2-1.27,25.26-4.4c8.07-3.12,15.52-7.86,21.8-13.85   c6.29-5.99,11.42-13.26,14.96-21.3c3.55-8.03,5.5-16.84,5.68-25.63C428.25,234.08,426.71,225.13,423.47,216.82z M310.07,232.25   c-13.81-4.24-26.31-5.04-26.31-5.04C297.6,224.97,310.07,232.25,310.07,232.25z M307.51,216.89c-14.24,2.48-25.73,7.43-25.73,7.43   C293.09,216.05,307.51,216.89,307.51,216.89z M277.91,214.38c1.84-0.92,4.46-0.77,4.77,0c0.26,0.66-2.62,4.01-5.09,5.54   c-0.54,0.34-1.24-0.08-1.23-0.72C276.4,217.59,276.67,215,277.91,214.38z M288.98,243.22l-0.05,0.38c-0.08,0.55-0.2,1.1-0.29,1.65   c-0.43,2.19-1.08,4.33-1.94,6.4c-1.71,4.12-4.25,7.92-7.43,11.1c-3.18,3.17-6.98,5.71-11.11,7.41c-4.13,1.71-8.57,2.58-13.09,2.58   c-4.52-0.01-8.96-0.9-13.08-2.61c-4.12-1.72-7.92-4.26-11.08-7.45c-3.17-3.18-5.7-6.99-7.4-11.12c-1.7-4.13-2.57-8.58-2.56-13.09   c0.01-4.52,0.91-8.96,2.63-13.08c1.72-4.12,4.27-7.91,7.47-11.07c3.19-3.16,6.99-5.69,11.13-7.38c4.13-1.7,8.58-2.55,13.1-2.54   c4.51,0.02,8.96,0.91,13.07,2.65l0.19,0.08l0.23,0.1l0.56,0.25l0.88,0.39c0.34,0.15,0.82,0.39,1.28,0.64   c0.81,0.43,1.66,0.94,2.48,1.47c-3.27,3.05-2.81,8.06-3.65,10.1c-0.85,2.07-7.79,4.99-7.54,6.81c0.24,1.83,8.88,12.41,11.19,13.38   c2.31,0.97,4.5-1.22,6.08-1.22c1.3,0,5.98,1.64,10.04,1.41c0.02,0,0.04,0,0.07-0.01c0.26-0.02,0.53-0.04,0.78-0.07   c0.09-0.01,0.18-0.03,0.27-0.05c0.19-0.03,0.38-0.06,0.56-0.1c0.28-0.06,0.55-0.13,0.81-0.22c0,0,5.05-1.19,7.6-3.06   C300.21,236.96,296.23,242,288.98,243.22z M305.68,248.97c13.81,4.24,26.31,5.04,26.31,5.04   C318.15,256.26,305.68,248.97,305.68,248.97z M308.25,264.33c14.24-2.48,25.73-7.43,25.73-7.43   C322.66,265.18,308.25,264.33,308.25,264.33z M337.84,266.85c-1.84,0.92-4.46,0.77-4.77,0c-0.26-0.66,2.62-4.01,5.09-5.54   c0.54-0.34,1.24,0.08,1.23,0.72C339.35,263.64,339.09,266.22,337.84,266.85z M392.16,255.84c-1.72,4.12-4.27,7.91-7.47,11.07   c-3.19,3.16-6.99,5.69-11.13,7.38c-4.13,1.7-8.58,2.55-13.1,2.54c-4.51-0.02-8.96-0.91-13.07-2.65l-0.19-0.08l-0.23-0.1l-0.56-0.25   l-0.88-0.39c-0.34-0.15-0.82-0.39-1.28-0.64c-0.81-0.43-1.66-0.94-2.48-1.47c3.27-3.05,2.81-8.06,3.65-10.1   c0.85-2.07,7.79-4.99,7.54-6.81c-0.24-1.83-8.88-12.41-11.19-13.38c-2.31-0.97-4.5,1.22-6.08,1.22c-1.3,0-5.98-1.64-10.04-1.41   c-0.02,0-0.04,0-0.06,0.01c-0.26,0.02-0.53,0.04-0.78,0.07c-0.09,0.01-0.18,0.03-0.27,0.05c-0.19,0.03-0.38,0.06-0.56,0.1   c-0.28,0.06-0.55,0.13-0.81,0.22c0,0-5.05,1.19-7.6,3.06c0,0,3.99-5.04,11.23-6.26l0.05-0.38c0.08-0.55,0.2-1.1,0.29-1.65   c0.43-2.19,1.08-4.33,1.94-6.4c1.71-4.12,4.25-7.92,7.43-11.1c3.18-3.17,6.98-5.71,11.11-7.41c4.13-1.71,8.57-2.58,13.09-2.58   c4.52,0.01,8.96,0.9,13.08,2.61c4.12,1.72,7.92,4.26,11.08,7.45c3.17,3.18,5.7,6.99,7.4,11.12c1.7,4.13,2.57,8.58,2.56,13.09   C394.79,247.28,393.89,251.72,392.16,255.84z" style="fill: #4A73E8; fill-opacity: 1;"></path><linearGradient id="SVGID_1_" gradientUnits="userSpaceOnUse" x1="274.0698" y1="194.2601" x2="288.6707" y2="203.7507" style="fill: #000000; fill-opacity: 1;"><stop offset="0" style="stop-color: #000000; stop-opacity: 0;"></stop><stop offset="1" style="stop-color: #000000; stop-opacity: 0.9;"></stop></linearGradient><path class="st1" d="M268.86,193.13c-1.93,1.65-3.96,3.41-5.44,4.73c-2.36,2.1-4.02,4.41-5.22,6.67c3.5,0.31,6.93,1.14,10.16,2.5   l0.19,0.08l0.23,0.1l0.56,0.25l0.88,0.39c0.34,0.15,0.82,0.39,1.28,0.64c0.81,0.43,1.66,0.94,2.48,1.47   c0.04-0.04,0.08-0.08,0.12-0.12c2.68-2.39,7.44-6.44,9.36-8.06c0.53-0.45,0.86-1.09,0.92-1.79l0.8-9.26l6.79,5.79   c0.1,0.08,0.22,0.12,0.33,0.12c0.22,0,0.44-0.15,0.5-0.39l2.18-8.59c-1.23-0.98-2.47-1.93-3.77-2.83c-1.72-1.19-3.48-2.3-5.38-3.35   c-0.96-0.53-1.92-1.04-3.07-1.58c-0.31-0.14-0.56-0.26-1.04-0.47c-0.29-0.12,0.34,0.14,0.19,0.08l-0.07-0.03l-0.13-0.06l-0.26-0.13   l-0.53-0.25l-0.32-0.15l-0.37-0.16c-3.17-1.42-6.48-2.55-9.85-3.44l-1.21,14.06L268.86,193.13z" style="fill: url(#SVGID_1_); fill-opacity: 0.4;"></path><linearGradient id="SVGID_2_" gradientUnits="userSpaceOnUse" x1="365.4531" y1="-1699.498" x2="380.054" y2="-1690.0076" gradientTransform="matrix(-1 0 0 -1 707.1414 -1412.5306)" style="fill: #000000; fill-opacity: 1;"><stop offset="0" style="stop-color: #000000; stop-opacity: 0;"></stop><stop offset="1" style="stop-color: #000000; stop-opacity: 0.9;"></stop></linearGradient><path class="st2" d="M346.9,288.1c1.93-1.65,3.96-3.41,5.44-4.73c2.36-2.1,4.02-4.41,5.22-6.67c-3.5-0.31-6.93-1.14-10.16-2.5   l-0.19-0.08l-0.23-0.1l-0.56-0.25l-0.88-0.39c-0.34-0.15-0.82-0.39-1.28-0.64c-0.81-0.43-1.66-0.94-2.48-1.47   c-0.04,0.04-0.08,0.08-0.12,0.12c-2.68,2.39-7.44,6.44-9.36,8.06c-0.53,0.45-0.86,1.09-0.92,1.79l-0.8,9.26l-6.79-5.79   c-0.1-0.08-0.22-0.12-0.33-0.12c-0.22,0-0.44,0.15-0.5,0.39l-2.18,8.59c1.23,0.98,2.47,1.93,3.77,2.83   c1.72,1.19,3.48,2.3,5.38,3.35c0.96,0.53,1.92,1.04,3.07,1.58c0.31,0.14,0.56,0.26,1.04,0.47c0.29,0.12-0.34-0.14-0.19-0.08   l0.07,0.03l0.13,0.06l0.26,0.13l0.53,0.25l0.32,0.15l0.37,0.16c3.17,1.42,6.48,2.55,9.85,3.44l1.21-14.06L346.9,288.1z" style="fill: url(#SVGID_2_); fill-opacity: 0.4;"></path></svg></svg>
